<mxfile host="Electron" modified="2024-11-25T23:56:53.286Z" agent="Mozilla/5.0 (Windows NT 10.0; Win64; x64) AppleWebKit/537.36 (KHTML, like Gecko) draw.io/21.2.1 Chrome/112.0.5615.87 Electron/24.1.2 Safari/537.36" etag="TvJCld0MU-iXp-pEe0-h" version="21.2.1" type="device" pages="2">
  <diagram id="5p2rYvuWL0eslsr9cxV8" name="Component Diagram">
    <mxGraphModel dx="2026" dy="1183" grid="1" gridSize="10" guides="1" tooltips="1" connect="1" arrows="1" fold="1" page="1" pageScale="1" pageWidth="827" pageHeight="1169" math="0" shadow="0">
      <root>
        <mxCell id="0" />
        <mxCell id="1" parent="0" />
        <mxCell id="04bXEiIHl8jj2hsgzHHX-1" value="Client" style="html=1;dropTarget=0;" parent="1" vertex="1">
          <mxGeometry x="40" y="120" width="200" height="120" as="geometry" />
        </mxCell>
        <mxCell id="04bXEiIHl8jj2hsgzHHX-2" value="" style="shape=module;jettyWidth=8;jettyHeight=4;" parent="04bXEiIHl8jj2hsgzHHX-1" vertex="1">
          <mxGeometry x="1" width="20" height="20" relative="1" as="geometry">
            <mxPoint x="-27" y="7" as="offset" />
          </mxGeometry>
        </mxCell>
        <mxCell id="04bXEiIHl8jj2hsgzHHX-12" value="Web Server" style="html=1;dropTarget=0;" parent="1" vertex="1">
          <mxGeometry x="360" y="120" width="200" height="120" as="geometry" />
        </mxCell>
        <mxCell id="04bXEiIHl8jj2hsgzHHX-13" value="" style="shape=module;jettyWidth=8;jettyHeight=4;" parent="04bXEiIHl8jj2hsgzHHX-12" vertex="1">
          <mxGeometry x="1" width="20" height="20" relative="1" as="geometry">
            <mxPoint x="-27" y="7" as="offset" />
          </mxGeometry>
        </mxCell>
        <mxCell id="04bXEiIHl8jj2hsgzHHX-16" value="" style="rounded=0;orthogonalLoop=1;jettySize=auto;html=1;endArrow=none;endFill=0;sketch=0;sourcePerimeterSpacing=0;targetPerimeterSpacing=0;fontFamily=Helvetica;fontSize=12;fontColor=default;exitX=1;exitY=0.5;exitDx=0;exitDy=0;" parent="1" source="04bXEiIHl8jj2hsgzHHX-1" target="04bXEiIHl8jj2hsgzHHX-18" edge="1">
          <mxGeometry relative="1" as="geometry">
            <mxPoint x="280" y="180" as="sourcePoint" />
          </mxGeometry>
        </mxCell>
        <mxCell id="04bXEiIHl8jj2hsgzHHX-17" value="" style="rounded=0;orthogonalLoop=1;jettySize=auto;html=1;endArrow=halfCircle;endFill=0;entryX=0.5;entryY=0.5;endSize=6;strokeWidth=1;sketch=0;fontFamily=Helvetica;fontSize=12;fontColor=default;exitX=0;exitY=0.5;exitDx=0;exitDy=0;" parent="1" source="04bXEiIHl8jj2hsgzHHX-12" target="04bXEiIHl8jj2hsgzHHX-18" edge="1">
          <mxGeometry relative="1" as="geometry">
            <mxPoint x="320" y="180" as="sourcePoint" />
          </mxGeometry>
        </mxCell>
        <mxCell id="04bXEiIHl8jj2hsgzHHX-18" value="" style="ellipse;whiteSpace=wrap;html=1;align=center;aspect=fixed;resizable=0;points=[];outlineConnect=0;sketch=0;strokeColor=default;fontFamily=Helvetica;fontSize=12;fontColor=default;fillColor=default;" parent="1" vertex="1">
          <mxGeometry x="295" y="175" width="10" height="10" as="geometry" />
        </mxCell>
        <mxCell id="04bXEiIHl8jj2hsgzHHX-19" value="Application Server" style="html=1;dropTarget=0;" parent="1" vertex="1">
          <mxGeometry x="680" y="120" width="200" height="120" as="geometry" />
        </mxCell>
        <mxCell id="04bXEiIHl8jj2hsgzHHX-20" value="" style="shape=module;jettyWidth=8;jettyHeight=4;" parent="04bXEiIHl8jj2hsgzHHX-19" vertex="1">
          <mxGeometry x="1" width="20" height="20" relative="1" as="geometry">
            <mxPoint x="-27" y="7" as="offset" />
          </mxGeometry>
        </mxCell>
        <mxCell id="04bXEiIHl8jj2hsgzHHX-21" value="" style="rounded=0;orthogonalLoop=1;jettySize=auto;html=1;endArrow=none;endFill=0;sketch=0;sourcePerimeterSpacing=0;targetPerimeterSpacing=0;fontFamily=Helvetica;fontSize=12;fontColor=default;exitX=1;exitY=0.5;exitDx=0;exitDy=0;" parent="1" target="04bXEiIHl8jj2hsgzHHX-23" edge="1">
          <mxGeometry relative="1" as="geometry">
            <mxPoint x="560" y="180" as="sourcePoint" />
          </mxGeometry>
        </mxCell>
        <mxCell id="04bXEiIHl8jj2hsgzHHX-22" value="" style="rounded=0;orthogonalLoop=1;jettySize=auto;html=1;endArrow=halfCircle;endFill=0;entryX=0.5;entryY=0.5;endSize=6;strokeWidth=1;sketch=0;fontFamily=Helvetica;fontSize=12;fontColor=default;exitX=0;exitY=0.5;exitDx=0;exitDy=0;" parent="1" source="04bXEiIHl8jj2hsgzHHX-19" target="04bXEiIHl8jj2hsgzHHX-23" edge="1">
          <mxGeometry relative="1" as="geometry">
            <mxPoint x="640" y="180" as="sourcePoint" />
          </mxGeometry>
        </mxCell>
        <mxCell id="04bXEiIHl8jj2hsgzHHX-23" value="" style="ellipse;whiteSpace=wrap;html=1;align=center;aspect=fixed;resizable=0;points=[];outlineConnect=0;sketch=0;strokeColor=default;fontFamily=Helvetica;fontSize=12;fontColor=default;fillColor=default;" parent="1" vertex="1">
          <mxGeometry x="615" y="175" width="10" height="10" as="geometry" />
        </mxCell>
        <mxCell id="04bXEiIHl8jj2hsgzHHX-24" value="&lt;font style=&quot;font-size: 14px;&quot;&gt;HTTP POST&lt;/font&gt;" style="text;html=1;strokeColor=none;fillColor=none;align=center;verticalAlign=middle;whiteSpace=wrap;rounded=0;fontSize=12;fontFamily=Helvetica;fontColor=default;" parent="1" vertex="1">
          <mxGeometry x="270" y="120" width="60" height="30" as="geometry" />
        </mxCell>
        <mxCell id="04bXEiIHl8jj2hsgzHHX-25" value="&lt;span style=&quot;font-size: 14px;&quot;&gt;Inner Request&lt;/span&gt;" style="text;html=1;strokeColor=none;fillColor=none;align=center;verticalAlign=middle;whiteSpace=wrap;rounded=0;fontSize=12;fontFamily=Helvetica;fontColor=default;" parent="1" vertex="1">
          <mxGeometry x="590" y="120" width="60" height="30" as="geometry" />
        </mxCell>
        <mxCell id="04bXEiIHl8jj2hsgzHHX-26" value="Database" style="html=1;dropTarget=0;" parent="1" vertex="1">
          <mxGeometry x="1000" y="120" width="200" height="120" as="geometry" />
        </mxCell>
        <mxCell id="04bXEiIHl8jj2hsgzHHX-27" value="" style="shape=module;jettyWidth=8;jettyHeight=4;" parent="04bXEiIHl8jj2hsgzHHX-26" vertex="1">
          <mxGeometry x="1" width="20" height="20" relative="1" as="geometry">
            <mxPoint x="-27" y="7" as="offset" />
          </mxGeometry>
        </mxCell>
        <mxCell id="04bXEiIHl8jj2hsgzHHX-28" value="" style="rounded=0;orthogonalLoop=1;jettySize=auto;html=1;endArrow=none;endFill=0;sketch=0;sourcePerimeterSpacing=0;targetPerimeterSpacing=0;fontFamily=Helvetica;fontSize=12;fontColor=default;exitX=1;exitY=0.5;exitDx=0;exitDy=0;" parent="1" target="04bXEiIHl8jj2hsgzHHX-30" edge="1">
          <mxGeometry relative="1" as="geometry">
            <mxPoint x="880" y="180" as="sourcePoint" />
          </mxGeometry>
        </mxCell>
        <mxCell id="04bXEiIHl8jj2hsgzHHX-29" value="" style="rounded=0;orthogonalLoop=1;jettySize=auto;html=1;endArrow=halfCircle;endFill=0;entryX=0.5;entryY=0.5;endSize=6;strokeWidth=1;sketch=0;fontFamily=Helvetica;fontSize=12;fontColor=default;exitX=0;exitY=0.5;exitDx=0;exitDy=0;" parent="1" source="04bXEiIHl8jj2hsgzHHX-26" target="04bXEiIHl8jj2hsgzHHX-30" edge="1">
          <mxGeometry relative="1" as="geometry">
            <mxPoint x="960" y="180" as="sourcePoint" />
          </mxGeometry>
        </mxCell>
        <mxCell id="04bXEiIHl8jj2hsgzHHX-30" value="" style="ellipse;whiteSpace=wrap;html=1;align=center;aspect=fixed;resizable=0;points=[];outlineConnect=0;sketch=0;strokeColor=default;fontFamily=Helvetica;fontSize=12;fontColor=default;fillColor=default;" parent="1" vertex="1">
          <mxGeometry x="935" y="175" width="10" height="10" as="geometry" />
        </mxCell>
        <mxCell id="04bXEiIHl8jj2hsgzHHX-31" value="&lt;span style=&quot;font-size: 14px;&quot;&gt;SQL&lt;/span&gt;" style="text;html=1;strokeColor=none;fillColor=none;align=center;verticalAlign=middle;whiteSpace=wrap;rounded=0;fontSize=12;fontFamily=Helvetica;fontColor=default;" parent="1" vertex="1">
          <mxGeometry x="910" y="120" width="60" height="30" as="geometry" />
        </mxCell>
      </root>
    </mxGraphModel>
  </diagram>
  <diagram id="2FgWOBHO0sSYxbaglhVz" name="Sequence Diagram">
    <mxGraphModel dx="1668" dy="974" grid="1" gridSize="10" guides="1" tooltips="1" connect="1" arrows="1" fold="1" page="1" pageScale="1" pageWidth="827" pageHeight="1169" math="0" shadow="0">
      <root>
        <mxCell id="0" />
        <mxCell id="1" parent="0" />
        <mxCell id="Gsg54naLwYlWK8Z8hwEK-1" value="Client" style="shape=umlLifeline;perimeter=lifelinePerimeter;whiteSpace=wrap;html=1;container=1;dropTarget=0;collapsible=0;recursiveResize=0;outlineConnect=0;portConstraint=eastwest;newEdgeStyle={&quot;edgeStyle&quot;:&quot;elbowEdgeStyle&quot;,&quot;elbow&quot;:&quot;vertical&quot;,&quot;curved&quot;:0,&quot;rounded&quot;:0};" vertex="1" parent="1">
          <mxGeometry x="160" y="80" width="120" height="760" as="geometry" />
        </mxCell>
        <mxCell id="Gsg54naLwYlWK8Z8hwEK-5" value="" style="html=1;points=[];perimeter=orthogonalPerimeter;outlineConnect=0;targetShapes=umlLifeline;portConstraint=eastwest;newEdgeStyle={&quot;edgeStyle&quot;:&quot;elbowEdgeStyle&quot;,&quot;elbow&quot;:&quot;vertical&quot;,&quot;curved&quot;:0,&quot;rounded&quot;:0};" vertex="1" parent="Gsg54naLwYlWK8Z8hwEK-1">
          <mxGeometry x="55" y="80" width="10" height="330" as="geometry" />
        </mxCell>
        <mxCell id="IoP95vmxlxcuH7JWS4S_-15" value="" style="html=1;points=[];perimeter=orthogonalPerimeter;outlineConnect=0;targetShapes=umlLifeline;portConstraint=eastwest;newEdgeStyle={&quot;edgeStyle&quot;:&quot;elbowEdgeStyle&quot;,&quot;elbow&quot;:&quot;vertical&quot;,&quot;curved&quot;:0,&quot;rounded&quot;:0};" vertex="1" parent="Gsg54naLwYlWK8Z8hwEK-1">
          <mxGeometry x="55" y="480" width="10" height="80" as="geometry" />
        </mxCell>
        <mxCell id="Gsg54naLwYlWK8Z8hwEK-2" value="Web Server" style="shape=umlLifeline;perimeter=lifelinePerimeter;whiteSpace=wrap;html=1;container=1;dropTarget=0;collapsible=0;recursiveResize=0;outlineConnect=0;portConstraint=eastwest;newEdgeStyle={&quot;edgeStyle&quot;:&quot;elbowEdgeStyle&quot;,&quot;elbow&quot;:&quot;vertical&quot;,&quot;curved&quot;:0,&quot;rounded&quot;:0};" vertex="1" parent="1">
          <mxGeometry x="360" y="80" width="120" height="760" as="geometry" />
        </mxCell>
        <mxCell id="Gsg54naLwYlWK8Z8hwEK-11" value="" style="html=1;points=[];perimeter=orthogonalPerimeter;outlineConnect=0;targetShapes=umlLifeline;portConstraint=eastwest;newEdgeStyle={&quot;edgeStyle&quot;:&quot;elbowEdgeStyle&quot;,&quot;elbow&quot;:&quot;vertical&quot;,&quot;curved&quot;:0,&quot;rounded&quot;:0};" vertex="1" parent="Gsg54naLwYlWK8Z8hwEK-2">
          <mxGeometry x="55" y="100" width="10" height="290" as="geometry" />
        </mxCell>
        <mxCell id="Gsg54naLwYlWK8Z8hwEK-3" value="Application server" style="shape=umlLifeline;perimeter=lifelinePerimeter;whiteSpace=wrap;html=1;container=1;dropTarget=0;collapsible=0;recursiveResize=0;outlineConnect=0;portConstraint=eastwest;newEdgeStyle={&quot;edgeStyle&quot;:&quot;elbowEdgeStyle&quot;,&quot;elbow&quot;:&quot;vertical&quot;,&quot;curved&quot;:0,&quot;rounded&quot;:0};" vertex="1" parent="1">
          <mxGeometry x="560" y="80" width="120" height="760" as="geometry" />
        </mxCell>
        <mxCell id="Gsg54naLwYlWK8Z8hwEK-17" value="" style="html=1;points=[];perimeter=orthogonalPerimeter;outlineConnect=0;targetShapes=umlLifeline;portConstraint=eastwest;newEdgeStyle={&quot;edgeStyle&quot;:&quot;elbowEdgeStyle&quot;,&quot;elbow&quot;:&quot;vertical&quot;,&quot;curved&quot;:0,&quot;rounded&quot;:0};" vertex="1" parent="Gsg54naLwYlWK8Z8hwEK-3">
          <mxGeometry x="55" y="120" width="10" height="250" as="geometry" />
        </mxCell>
        <mxCell id="Gsg54naLwYlWK8Z8hwEK-4" value="Database" style="shape=umlLifeline;perimeter=lifelinePerimeter;whiteSpace=wrap;html=1;container=1;dropTarget=0;collapsible=0;recursiveResize=0;outlineConnect=0;portConstraint=eastwest;newEdgeStyle={&quot;edgeStyle&quot;:&quot;elbowEdgeStyle&quot;,&quot;elbow&quot;:&quot;vertical&quot;,&quot;curved&quot;:0,&quot;rounded&quot;:0};" vertex="1" parent="1">
          <mxGeometry x="760" y="80" width="120" height="760" as="geometry" />
        </mxCell>
        <mxCell id="IoP95vmxlxcuH7JWS4S_-2" value="" style="html=1;points=[];perimeter=orthogonalPerimeter;outlineConnect=0;targetShapes=umlLifeline;portConstraint=eastwest;newEdgeStyle={&quot;edgeStyle&quot;:&quot;elbowEdgeStyle&quot;,&quot;elbow&quot;:&quot;vertical&quot;,&quot;curved&quot;:0,&quot;rounded&quot;:0};" vertex="1" parent="Gsg54naLwYlWK8Z8hwEK-4">
          <mxGeometry x="55" y="140" width="10" height="80" as="geometry" />
        </mxCell>
        <mxCell id="IoP95vmxlxcuH7JWS4S_-7" value="" style="html=1;points=[];perimeter=orthogonalPerimeter;outlineConnect=0;targetShapes=umlLifeline;portConstraint=eastwest;newEdgeStyle={&quot;edgeStyle&quot;:&quot;elbowEdgeStyle&quot;,&quot;elbow&quot;:&quot;vertical&quot;,&quot;curved&quot;:0,&quot;rounded&quot;:0};" vertex="1" parent="Gsg54naLwYlWK8Z8hwEK-4">
          <mxGeometry x="55" y="270" width="10" height="80" as="geometry" />
        </mxCell>
        <mxCell id="IoP95vmxlxcuH7JWS4S_-8" value="" style="endArrow=classic;html=1;rounded=0;" edge="1" parent="Gsg54naLwYlWK8Z8hwEK-4">
          <mxGeometry width="50" height="50" relative="1" as="geometry">
            <mxPoint x="-135" y="270" as="sourcePoint" />
            <mxPoint x="55" y="270" as="targetPoint" />
            <Array as="points">
              <mxPoint x="-80" y="270" />
            </Array>
          </mxGeometry>
        </mxCell>
        <mxCell id="IoP95vmxlxcuH7JWS4S_-9" value="return OK" style="html=1;verticalAlign=bottom;endArrow=open;dashed=1;endSize=8;edgeStyle=elbowEdgeStyle;elbow=vertical;curved=0;rounded=0;" edge="1" parent="Gsg54naLwYlWK8Z8hwEK-4" source="IoP95vmxlxcuH7JWS4S_-7">
          <mxGeometry relative="1" as="geometry">
            <mxPoint x="50" y="350.04" as="sourcePoint" />
            <mxPoint x="-135" y="350" as="targetPoint" />
            <Array as="points">
              <mxPoint x="-90" y="350" />
            </Array>
          </mxGeometry>
        </mxCell>
        <mxCell id="Gsg54naLwYlWK8Z8hwEK-8" value="" style="edgeStyle=elbowEdgeStyle;fontSize=12;html=1;endArrow=blockThin;endFill=1;rounded=0;" edge="1" parent="1" source="Gsg54naLwYlWK8Z8hwEK-5" target="Gsg54naLwYlWK8Z8hwEK-11">
          <mxGeometry width="160" relative="1" as="geometry">
            <mxPoint x="220" y="160" as="sourcePoint" />
            <mxPoint x="410" y="160" as="targetPoint" />
            <Array as="points">
              <mxPoint x="380" y="180" />
              <mxPoint x="340" y="160" />
            </Array>
          </mxGeometry>
        </mxCell>
        <mxCell id="Gsg54naLwYlWK8Z8hwEK-14" value="HTTP POST (Number)" style="text;html=1;strokeColor=none;fillColor=none;align=center;verticalAlign=middle;whiteSpace=wrap;rounded=0;" vertex="1" parent="1">
          <mxGeometry x="220" y="130" width="200" height="30" as="geometry" />
        </mxCell>
        <mxCell id="Gsg54naLwYlWK8Z8hwEK-15" value="" style="endArrow=classic;html=1;rounded=0;" edge="1" parent="1" source="Gsg54naLwYlWK8Z8hwEK-11" target="Gsg54naLwYlWK8Z8hwEK-17">
          <mxGeometry width="50" height="50" relative="1" as="geometry">
            <mxPoint x="430" y="200" as="sourcePoint" />
            <mxPoint x="610" y="200" as="targetPoint" />
            <Array as="points">
              <mxPoint x="480" y="200" />
            </Array>
          </mxGeometry>
        </mxCell>
        <mxCell id="IoP95vmxlxcuH7JWS4S_-1" value="Inner Request (Number)" style="text;html=1;strokeColor=none;fillColor=none;align=center;verticalAlign=middle;whiteSpace=wrap;rounded=0;" vertex="1" parent="1">
          <mxGeometry x="420" y="170" width="200" height="30" as="geometry" />
        </mxCell>
        <mxCell id="IoP95vmxlxcuH7JWS4S_-4" value="" style="endArrow=classic;html=1;rounded=0;" edge="1" parent="1">
          <mxGeometry width="50" height="50" relative="1" as="geometry">
            <mxPoint x="625" y="220" as="sourcePoint" />
            <mxPoint x="815" y="220" as="targetPoint" />
            <Array as="points">
              <mxPoint x="680" y="220" />
            </Array>
          </mxGeometry>
        </mxCell>
        <mxCell id="IoP95vmxlxcuH7JWS4S_-5" value="Check (Number)" style="text;html=1;strokeColor=none;fillColor=none;align=center;verticalAlign=middle;whiteSpace=wrap;rounded=0;" vertex="1" parent="1">
          <mxGeometry x="620" y="190" width="200" height="30" as="geometry" />
        </mxCell>
        <mxCell id="IoP95vmxlxcuH7JWS4S_-6" value="return OK" style="html=1;verticalAlign=bottom;endArrow=open;dashed=1;endSize=8;edgeStyle=elbowEdgeStyle;elbow=vertical;curved=0;rounded=0;" edge="1" parent="1" source="IoP95vmxlxcuH7JWS4S_-2" target="Gsg54naLwYlWK8Z8hwEK-17">
          <mxGeometry relative="1" as="geometry">
            <mxPoint x="810" y="300.04" as="sourcePoint" />
            <mxPoint x="730" y="300.04" as="targetPoint" />
            <Array as="points">
              <mxPoint x="670" y="300" />
            </Array>
          </mxGeometry>
        </mxCell>
        <mxCell id="IoP95vmxlxcuH7JWS4S_-10" value="Save (Number)" style="text;html=1;strokeColor=none;fillColor=none;align=center;verticalAlign=middle;whiteSpace=wrap;rounded=0;" vertex="1" parent="1">
          <mxGeometry x="620" y="320" width="200" height="30" as="geometry" />
        </mxCell>
        <mxCell id="IoP95vmxlxcuH7JWS4S_-11" value="OK" style="html=1;verticalAlign=bottom;endArrow=open;dashed=1;endSize=8;edgeStyle=elbowEdgeStyle;elbow=vertical;curved=0;rounded=0;" edge="1" parent="1" source="Gsg54naLwYlWK8Z8hwEK-17" target="Gsg54naLwYlWK8Z8hwEK-11">
          <mxGeometry x="0.0031" relative="1" as="geometry">
            <mxPoint x="610" y="450" as="sourcePoint" />
            <mxPoint x="430" y="450" as="targetPoint" />
            <Array as="points">
              <mxPoint x="465" y="450" />
            </Array>
            <mxPoint as="offset" />
          </mxGeometry>
        </mxCell>
        <mxCell id="IoP95vmxlxcuH7JWS4S_-12" value="HTTP 200 (Number+1)" style="html=1;verticalAlign=bottom;endArrow=open;dashed=1;endSize=8;edgeStyle=elbowEdgeStyle;elbow=vertical;curved=0;rounded=0;" edge="1" parent="1">
          <mxGeometry relative="1" as="geometry">
            <mxPoint x="415" y="470" as="sourcePoint" />
            <mxPoint x="225" y="470" as="targetPoint" />
            <Array as="points">
              <mxPoint x="265" y="470" />
            </Array>
          </mxGeometry>
        </mxCell>
        <mxCell id="IoP95vmxlxcuH7JWS4S_-13" value="alt" style="shape=umlFrame;whiteSpace=wrap;html=1;pointerEvents=0;" vertex="1" parent="1">
          <mxGeometry x="170" y="240" width="670" height="570" as="geometry" />
        </mxCell>
        <mxCell id="IoP95vmxlxcuH7JWS4S_-14" value="[Valid]" style="text;html=1;strokeColor=none;fillColor=none;align=center;verticalAlign=middle;whiteSpace=wrap;rounded=0;" vertex="1" parent="1">
          <mxGeometry x="230" y="240" width="60" height="30" as="geometry" />
        </mxCell>
        <mxCell id="IoP95vmxlxcuH7JWS4S_-17" value="[Small Number]" style="text;html=1;strokeColor=none;fillColor=none;align=center;verticalAlign=middle;whiteSpace=wrap;rounded=0;" vertex="1" parent="1">
          <mxGeometry x="230" y="520" width="110" height="30" as="geometry" />
        </mxCell>
        <mxCell id="IoP95vmxlxcuH7JWS4S_-18" value="" style="html=1;points=[];perimeter=orthogonalPerimeter;outlineConnect=0;targetShapes=umlLifeline;portConstraint=eastwest;newEdgeStyle={&quot;edgeStyle&quot;:&quot;elbowEdgeStyle&quot;,&quot;elbow&quot;:&quot;vertical&quot;,&quot;curved&quot;:0,&quot;rounded&quot;:0};" vertex="1" parent="1">
          <mxGeometry x="415" y="560" width="10" height="60" as="geometry" />
        </mxCell>
        <mxCell id="IoP95vmxlxcuH7JWS4S_-19" value="" style="html=1;points=[];perimeter=orthogonalPerimeter;outlineConnect=0;targetShapes=umlLifeline;portConstraint=eastwest;newEdgeStyle={&quot;edgeStyle&quot;:&quot;elbowEdgeStyle&quot;,&quot;elbow&quot;:&quot;vertical&quot;,&quot;curved&quot;:0,&quot;rounded&quot;:0};" vertex="1" parent="1">
          <mxGeometry x="615" y="560" width="10" height="40" as="geometry" />
        </mxCell>
        <mxCell id="IoP95vmxlxcuH7JWS4S_-20" value="" style="html=1;points=[];perimeter=orthogonalPerimeter;outlineConnect=0;targetShapes=umlLifeline;portConstraint=eastwest;newEdgeStyle={&quot;edgeStyle&quot;:&quot;elbowEdgeStyle&quot;,&quot;elbow&quot;:&quot;vertical&quot;,&quot;curved&quot;:0,&quot;rounded&quot;:0};" vertex="1" parent="1">
          <mxGeometry x="815" y="560" width="10" height="20" as="geometry" />
        </mxCell>
        <mxCell id="IoP95vmxlxcuH7JWS4S_-21" value="return SMALL NUMBER" style="html=1;verticalAlign=bottom;endArrow=open;dashed=1;endSize=8;edgeStyle=elbowEdgeStyle;elbow=vertical;curved=0;rounded=0;" edge="1" parent="1" source="IoP95vmxlxcuH7JWS4S_-20" target="IoP95vmxlxcuH7JWS4S_-19">
          <mxGeometry relative="1" as="geometry">
            <mxPoint x="810" y="580" as="sourcePoint" />
            <mxPoint x="630" y="580" as="targetPoint" />
            <Array as="points">
              <mxPoint x="665" y="580" />
            </Array>
          </mxGeometry>
        </mxCell>
        <mxCell id="IoP95vmxlxcuH7JWS4S_-22" value="ERROR 1&lt;br style=&quot;border-color: var(--border-color); background-color: rgb(251, 251, 251);&quot;&gt;&lt;span style=&quot;border-color: var(--border-color);&quot;&gt;(Number small than existing)&lt;/span&gt;" style="html=1;verticalAlign=bottom;endArrow=open;dashed=1;endSize=8;edgeStyle=elbowEdgeStyle;elbow=vertical;curved=0;rounded=0;" edge="1" parent="1">
          <mxGeometry x="0.0031" relative="1" as="geometry">
            <mxPoint x="615" y="600" as="sourcePoint" />
            <mxPoint x="425" y="600" as="targetPoint" />
            <Array as="points">
              <mxPoint x="465" y="600" />
            </Array>
            <mxPoint as="offset" />
          </mxGeometry>
        </mxCell>
        <mxCell id="IoP95vmxlxcuH7JWS4S_-23" value="HTTP 400" style="html=1;verticalAlign=bottom;endArrow=open;dashed=1;endSize=8;edgeStyle=elbowEdgeStyle;elbow=vertical;curved=0;rounded=0;" edge="1" parent="1">
          <mxGeometry relative="1" as="geometry">
            <mxPoint x="415" y="620" as="sourcePoint" />
            <mxPoint x="225" y="620" as="targetPoint" />
            <Array as="points">
              <mxPoint x="265" y="620" />
            </Array>
          </mxGeometry>
        </mxCell>
        <mxCell id="IoP95vmxlxcuH7JWS4S_-24" value="" style="html=1;points=[];perimeter=orthogonalPerimeter;outlineConnect=0;targetShapes=umlLifeline;portConstraint=eastwest;newEdgeStyle={&quot;edgeStyle&quot;:&quot;elbowEdgeStyle&quot;,&quot;elbow&quot;:&quot;vertical&quot;,&quot;curved&quot;:0,&quot;rounded&quot;:0};" vertex="1" parent="1">
          <mxGeometry x="215" y="710" width="10" height="80" as="geometry" />
        </mxCell>
        <mxCell id="IoP95vmxlxcuH7JWS4S_-26" value="[Number already exists]&amp;nbsp;" style="text;html=1;strokeColor=none;fillColor=none;align=center;verticalAlign=middle;whiteSpace=wrap;rounded=0;" vertex="1" parent="1">
          <mxGeometry x="230" y="670" width="150" height="30" as="geometry" />
        </mxCell>
        <mxCell id="IoP95vmxlxcuH7JWS4S_-27" value="" style="html=1;points=[];perimeter=orthogonalPerimeter;outlineConnect=0;targetShapes=umlLifeline;portConstraint=eastwest;newEdgeStyle={&quot;edgeStyle&quot;:&quot;elbowEdgeStyle&quot;,&quot;elbow&quot;:&quot;vertical&quot;,&quot;curved&quot;:0,&quot;rounded&quot;:0};" vertex="1" parent="1">
          <mxGeometry x="415" y="710" width="10" height="60" as="geometry" />
        </mxCell>
        <mxCell id="IoP95vmxlxcuH7JWS4S_-28" value="" style="html=1;points=[];perimeter=orthogonalPerimeter;outlineConnect=0;targetShapes=umlLifeline;portConstraint=eastwest;newEdgeStyle={&quot;edgeStyle&quot;:&quot;elbowEdgeStyle&quot;,&quot;elbow&quot;:&quot;vertical&quot;,&quot;curved&quot;:0,&quot;rounded&quot;:0};" vertex="1" parent="1">
          <mxGeometry x="615" y="710" width="10" height="40" as="geometry" />
        </mxCell>
        <mxCell id="IoP95vmxlxcuH7JWS4S_-29" value="" style="html=1;points=[];perimeter=orthogonalPerimeter;outlineConnect=0;targetShapes=umlLifeline;portConstraint=eastwest;newEdgeStyle={&quot;edgeStyle&quot;:&quot;elbowEdgeStyle&quot;,&quot;elbow&quot;:&quot;vertical&quot;,&quot;curved&quot;:0,&quot;rounded&quot;:0};" vertex="1" parent="1">
          <mxGeometry x="815" y="710" width="10" height="20" as="geometry" />
        </mxCell>
        <mxCell id="IoP95vmxlxcuH7JWS4S_-30" value="return ALREADY EXISTS" style="html=1;verticalAlign=bottom;endArrow=open;dashed=1;endSize=8;edgeStyle=elbowEdgeStyle;elbow=vertical;curved=0;rounded=0;" edge="1" parent="1" source="IoP95vmxlxcuH7JWS4S_-29" target="IoP95vmxlxcuH7JWS4S_-28">
          <mxGeometry x="0.0031" relative="1" as="geometry">
            <mxPoint x="810" y="730" as="sourcePoint" />
            <mxPoint x="630" y="730" as="targetPoint" />
            <Array as="points">
              <mxPoint x="665" y="730" />
            </Array>
            <mxPoint as="offset" />
          </mxGeometry>
        </mxCell>
        <mxCell id="IoP95vmxlxcuH7JWS4S_-31" value="ERROR 2&lt;br style=&quot;border-color: var(--border-color); background-color: rgb(251, 251, 251);&quot;&gt;(Number already exists)" style="html=1;verticalAlign=bottom;endArrow=open;dashed=1;endSize=8;edgeStyle=elbowEdgeStyle;elbow=vertical;curved=0;rounded=0;" edge="1" parent="1">
          <mxGeometry relative="1" as="geometry">
            <mxPoint x="615" y="750" as="sourcePoint" />
            <mxPoint x="425" y="750" as="targetPoint" />
            <Array as="points">
              <mxPoint x="465" y="750" />
            </Array>
          </mxGeometry>
        </mxCell>
        <mxCell id="IoP95vmxlxcuH7JWS4S_-32" value="HTTP 400" style="html=1;verticalAlign=bottom;endArrow=open;dashed=1;endSize=8;edgeStyle=elbowEdgeStyle;elbow=vertical;curved=0;rounded=0;" edge="1" parent="1">
          <mxGeometry relative="1" as="geometry">
            <mxPoint x="415" y="770" as="sourcePoint" />
            <mxPoint x="225" y="770" as="targetPoint" />
            <Array as="points">
              <mxPoint x="265" y="770" />
            </Array>
          </mxGeometry>
        </mxCell>
        <mxCell id="G7QEpnauZqRHoiXolP_--1" value="sq 3-layer architechure" style="shape=umlFrame;whiteSpace=wrap;html=1;pointerEvents=0;width=160;height=30;" vertex="1" parent="1">
          <mxGeometry x="120" y="40" width="800" height="840" as="geometry" />
        </mxCell>
        <mxCell id="3hWqakIS1rNQ3_4g5HU4-4" value="" style="endArrow=none;html=1;rounded=0;entryX=0.999;entryY=0.49;entryDx=0;entryDy=0;entryPerimeter=0;dashed=1;dashPattern=12 12;" edge="1" parent="1" target="IoP95vmxlxcuH7JWS4S_-13">
          <mxGeometry width="50" height="50" relative="1" as="geometry">
            <mxPoint x="170" y="520" as="sourcePoint" />
            <mxPoint x="330" y="520" as="targetPoint" />
          </mxGeometry>
        </mxCell>
        <mxCell id="3hWqakIS1rNQ3_4g5HU4-5" value="" style="endArrow=none;html=1;rounded=0;entryX=0.999;entryY=0.49;entryDx=0;entryDy=0;entryPerimeter=0;dashed=1;dashPattern=12 12;" edge="1" parent="1">
          <mxGeometry width="50" height="50" relative="1" as="geometry">
            <mxPoint x="170" y="671" as="sourcePoint" />
            <mxPoint x="839" y="670" as="targetPoint" />
          </mxGeometry>
        </mxCell>
      </root>
    </mxGraphModel>
  </diagram>
</mxfile>
